# xmcd CD database file
#
# Track frame offsets:
#	150
#	15900
#	30130
#	41255
#	56023
#	71329
#	82272
#	92205
#	106363
#	119940
#	130019
#	145177
#	156659
#	171589
#	186710
#	200610
#	212392
#	224655
#
# Disc length: 3211 seconds
#
# Revision: 4
# Processed by: cddbd v1.5.2PL0 Copyright (c) Steve Scherf et al.
# Submitted via: CDex 1.70beta2
#
DISCID=110c8912
DTITLE=B.B. KING - B.B. King - The Soul Of B.B. King
DYEAR=1963
DGENRE=Blues
TTITLE0=Going Home
TTITLE1=The Letter
TTITLE2=You Never Know
TTITLE3=Please Remember Me 
TTITLE4=Come Back Baby
TTITLE5=You Won't Listen
TTITLE6=Sundown
TTITLE7=You Shouldn't Have Left
TTITLE8=Boogie Rock
TTITLE9=Shake Yours (mono)
TTITLE10=The Road I Travel(Bonus)
TTITLE11=Eyesight To The Blind(Bonus)
TTITLE12=Green And Lucky Blues(Bonus)
TTITLE13=Dust My Broom(Stereo)(Bonus)
TTITLE14=Dreams(Bonus)
TTITLE15=Love, Honor And Obey(Bonus)
TTITLE16=Don't Let It Shock You(Bonus)
TTITLE17=A Woman Don't Care(Bonus)
EXTD=YEAR: 1963
EXTT0=
EXTT1=
EXTT2=
EXTT3=
EXTT4=
EXTT5=
EXTT6=
EXTT7=
EXTT8=
EXTT9=
EXTT10=
EXTT11=
EXTT12=
EXTT13=
EXTT14=
EXTT15=
EXTT16=
EXTT17=
PLAYORDER=
